<?xml version="1.0" encoding="utf-8"?>
<!-- Generator: Adobe Illustrator 23.0.2, SVG Export Plug-In . SVG Version: 6.00 Build 0)  -->
<svg version="1.1" id="CADers" xmlns="http://www.w3.org/2000/svg" xmlns:xlink="http://www.w3.org/1999/xlink" x="0px" y="0px"
	 width="1920px" height="870px" viewBox="0 0 1920 870" style="enable-background:new 0 0 1920 870;" xml:space="preserve">
<style type="text/css">
	.st0{opacity:0.54;fill:#4D4C4D;}
	.st1{fill:#1FD801;}
	.st2{fill:#064A01;}
</style>
<g>
	<g>
		<g>
			<path d="M114.81,332.14c0,5.83-1.24,10.6-3.73,14.27c-2.48,3.7-5.71,5.54-9.68,5.54H53.32c-3.99,0-7.26-1.83-9.82-5.54
				c-2.56-3.67-3.84-8.44-3.84-14.27v-70.82h16.96v68.69h41.23v-66.56l-52.71-93.12c-3.65-6.42-5.48-13.5-5.48-21.22V92.55
				c0-5.81,1.28-10.58,3.84-14.27c2.56-3.69,5.83-5.54,9.82-5.54h48.08c3.98,0,7.2,1.85,9.68,5.54c2.48,3.69,3.73,8.46,3.73,14.27
				v64.95H97.85v-62.8H56.62v58.88l52.95,93.12c3.5,6.18,5.24,13.15,5.24,20.87V332.14z"/>
			<path d="M224.75,351.95h-16.96V217.78h-46v134.17h-16.96V72.74h16.96V195.5h46V72.74h16.96V351.95z"/>
			<path d="M332.25,351.95h-16.83l-6.71-62.09h-37.95l-6.71,62.09H247.7v-0.72l34.05-279.2h16.71L332.25,351.95z M306.5,267.93
				l-16.71-151.3l-16.83,151.3H306.5z"/>
			<path d="M436.46,351.95h-17.81l-35.51-149.5l2.32-4.99h30.26V94.69h-43.55v257.26H355.2V72.74h63.93c3.99,0,7.25,1.85,9.76,5.54
				c2.53,3.69,3.79,8.46,3.79,14.27v105.98c0,13.44-6.18,20.16-18.54,20.16c-1.23,0-3.01-0.09-5.37-0.28
				c-2.36-0.17-4.08-0.26-5.13-0.26C414.61,262.63,425.55,307.24,436.46,351.95z"/>
			<path d="M524.55,351.95h-62.72V72.74h61.99v21.95h-45.03v104.18h40.99v22.3h-40.99v108.84h45.76V351.95z"/>
			<path d="M711.79,75.4l-22.91,113.52c-2.9,11.36-6.72,30.31-11.45,56.86v108.67h-16.76V245.79c-1.14-9.09-2.86-18.66-5.19-28.71
				c-3.86-17.22-5.95-26.61-6.26-28.15L626.29,75.4c0-0.11,0-0.66,0-1.62h17l25.93,140.44l25.69-140.44h16.88
				C711.79,74.63,711.79,75.16,711.79,75.4z"/>
			<path d="M811.98,334.54c0,5.86-1.26,10.66-3.79,14.34c-2.53,3.72-5.78,5.57-9.71,5.57h-52.82c-3.94,0-7.14-1.84-9.64-5.57
				c-2.48-3.69-3.73-8.48-3.73-14.34V93.69c0-5.84,1.25-10.64,3.73-14.34c2.5-3.71,5.7-5.57,9.64-5.57h52.82
				c3.93,0,7.18,1.86,9.71,5.57c2.53,3.71,3.79,8.5,3.79,14.34V334.54z M795.22,332.41V95.85h-46.18v236.55H795.22z"/>
			<path d="M920.39,334.54c0,5.86-1.26,10.66-3.81,14.34c-2.53,3.72-5.75,5.57-9.69,5.57h-51.37c-3.94,0-7.15-1.84-9.64-5.57
				c-2.49-3.69-3.74-8.48-3.74-14.34V73.78h16.76v258.62h44.74V73.78h16.76V334.54z"/>
			<path d="M1030.84,354.46h-17.6l-35.09-150.29l2.29-5.02h29.91V95.85H967.3v258.61h-16.76V73.78h63.19c3.94,0,7.15,1.86,9.64,5.57
				c2.49,3.71,3.74,8.5,3.74,14.34v106.53c0,13.51-6.12,20.26-18.33,20.26c-1.2,0-2.98-0.09-5.31-0.28
				c-2.33-0.17-4.03-0.26-5.07-0.26C1009.26,264.67,1020.07,309.51,1030.84,354.46z"/>
			<path d="M94.49,670.43c0,5.41-1.15,9.84-3.47,13.24c-2.33,3.44-5.27,5.14-8.82,5.14H38.3c-3.56,0-6.47-1.7-8.71-5.14
				c-2.26-3.4-3.38-7.83-3.38-13.24v-222.3c0-5.39,1.12-9.82,3.38-13.24c2.24-3.42,5.15-5.14,8.71-5.14H82.2
				c3.55,0,6.49,1.72,8.82,5.14c2.32,3.42,3.47,7.85,3.47,13.24v60.26H79.25v-58.27h-37.9v218.34h37.9v-63.73h15.24V670.43z"/>
			<path d="M192.96,670.43c0,5.41-1.14,9.84-3.43,13.24c-2.3,3.44-5.22,5.14-8.78,5.14h-47.7c-3.56,0-6.46-1.7-8.71-5.14
				c-2.25-3.4-3.38-7.83-3.38-13.24v-222.3c0-5.39,1.13-9.82,3.38-13.24c2.25-3.42,5.15-5.14,8.71-5.14h47.7
				c3.56,0,6.48,1.72,8.78,5.14c2.28,3.42,3.43,7.85,3.43,13.24V670.43z M177.82,668.45V450.12H136.1v218.34H177.82z"/>
			<path d="M261.89,600.25h-44.86v-20.52h44.86V600.25z"/>
			<path d="M357.96,670.43c0,5.41-1.14,9.84-3.43,13.24c-2.3,3.44-5.22,5.14-8.78,5.14h-47.7c-3.56,0-6.46-1.7-8.71-5.14
				c-2.25-3.4-3.38-7.83-3.38-13.24v-222.3c0-5.39,1.13-9.82,3.38-13.24c2.25-3.42,5.15-5.14,8.71-5.14h47.7
				c3.56,0,6.48,1.72,8.78,5.14c2.28,3.42,3.43,7.85,3.43,13.24V670.43z M342.82,668.45V450.12H301.1v218.34H342.82z"/>
			<path d="M457.73,688.81h-15.9l-31.7-138.71l2.07-4.63h27.01v-95.35h-38.88v238.69h-15.14V429.75h57.06
				c3.56,0,6.47,1.72,8.71,5.14c2.26,3.42,3.38,7.85,3.38,13.24v98.33c0,12.47-5.52,18.7-16.55,18.7c-1.1,0-2.69-0.09-4.79-0.26
				c-2.11-0.15-3.64-0.24-4.58-0.24C438.22,605.93,447.99,647.32,457.73,688.81z"/>
			<path d="M550.62,641.96c0,13.68-2.96,24.91-8.87,33.7c-5.91,8.76-13.38,13.15-22.38,13.15h-38.99V429.75h38.99
				c9.08,0,16.56,4.39,22.44,13.17c5.88,8.76,8.81,20,8.81,33.68V641.96z M535.48,639.64V478.59c0-8.49-1.75-15.37-5.27-20.61
				c-3.53-5.24-8.07-7.86-13.67-7.86h-21.02v218.34h20.14c5.89,0,10.66-2.57,14.33-7.71C533.66,655.62,535.48,648.58,535.48,639.64z
				"/>
			<path d="M593.22,688.81h-15.14V429.75h15.14V688.81z"/>
			<path d="M691.89,688.81h-10.46L635.9,498.28v190.53h-14.27V429.75h11.33l44.65,187.23V429.75h14.27V688.81z"/>
			<path d="M787.85,688.81h-15.03l-6-57.6h-33.86l-6,57.6h-14.58v-0.66l30.38-259.04h14.93L787.85,688.81z M764.87,610.85
				l-14.93-140.38l-15.03,140.38H764.87z"/>
			<path d="M867.02,450.12h-26.36v238.69h-15.14V450.12h-26.57v-20.37h68.07V450.12z"/>
			<path d="M940.75,688.81h-55.97V429.75h55.33v20.37h-40.19v96.66h36.59v20.69h-36.59v100.98h40.84V688.81z"/>
			<path d="M1030.82,670.43c0,5.41-1.1,9.84-3.31,13.24c-2.22,3.44-5.11,5.14-8.67,5.14h-42.91c-3.56,0-6.48-1.7-8.77-5.14
				c-2.3-3.4-3.44-7.83-3.44-13.24v-65.71h15.14v63.73h36.82V606.7l-47.05-86.4c-3.27-5.96-4.9-12.53-4.9-19.69v-52.48
				c0-5.39,1.14-9.82,3.44-13.24c2.28-3.42,5.21-5.14,8.77-5.14h42.91c3.56,0,6.45,1.72,8.67,5.14c2.22,3.42,3.31,7.85,3.31,13.24
				v60.26h-15.14v-58.27h-36.82v54.63l47.27,86.4c3.11,5.73,4.68,12.2,4.68,19.37V670.43z"/>
		</g>
		<path class="st0" d="M94.49,724.15H79.25v-26.79h-37.9v91.78h37.9v-24.49h15.24v25.33c0,2.27-1.15,4.13-3.47,5.57
			c-2.33,1.44-5.27,2.16-8.82,2.16H38.3c-3.56,0-6.47-0.72-8.71-2.16c-2.26-1.44-3.38-3.3-3.38-5.57v-93.45
			c0-2.27,1.12-4.13,3.38-5.57c2.24-1.45,5.15-2.16,8.71-2.16H82.2c3.55,0,6.49,0.72,8.82,2.16c2.32,1.43,3.47,3.29,3.47,5.57
			V724.15z"/>
		<path class="st0" d="M192.96,789.98c0,2.27-1.14,4.13-3.43,5.57c-2.3,1.44-5.22,2.16-8.78,2.16h-47.7c-3.56,0-6.46-0.72-8.71-2.16
			c-2.25-1.44-3.38-3.3-3.38-5.57v-93.45c0-2.27,1.13-4.13,3.38-5.57c2.25-1.45,5.15-2.16,8.71-2.16h47.7
			c3.56,0,6.48,0.72,8.78,2.16c2.28,1.43,3.43,3.29,3.43,5.57V789.98z M136.1,697.36v91.78h41.72v-91.78H136.1z"/>
		<path class="st0" d="M261.89,734.66h-44.86v-8.63h44.86V734.66z"/>
		<path class="st0" d="M357.96,789.98c0,2.27-1.14,4.13-3.43,5.57c-2.3,1.44-5.22,2.16-8.78,2.16h-47.7c-3.56,0-6.46-0.72-8.71-2.16
			c-2.25-1.44-3.38-3.3-3.38-5.57v-93.45c0-2.27,1.13-4.13,3.38-5.57c2.25-1.45,5.15-2.16,8.71-2.16h47.7
			c3.56,0,6.48,0.72,8.78,2.16c2.28,1.43,3.43,3.29,3.43,5.57V789.98z M301.1,697.36v91.78h41.72v-91.78H301.1z"/>
		<path class="st0" d="M428.43,740.99c0.94,0,2.47-0.04,4.58-0.1c2.11-0.07,3.7-0.11,4.79-0.11c11.03,0,16.55,2.62,16.55,7.86v41.33
			c0,2.27-1.12,4.13-3.38,5.57c-2.24,1.44-5.15,2.16-8.71,2.16h-57.06v-108.9h15.14v100.33h38.88v-40.08H412.2l-2.07-1.95
			l31.7-58.31h15.9C447.99,706.25,438.22,723.64,428.43,740.99z"/>
		<path class="st0" d="M550.62,778.01c0,5.75-2.93,10.47-8.81,14.16c-5.88,3.69-13.36,5.54-22.44,5.54h-38.99v-108.9h38.99
			c9,0,16.47,1.85,22.38,5.53c5.91,3.69,8.87,8.41,8.87,14.16V778.01z M530,700.6c-3.67-2.16-8.44-3.24-14.33-3.24h-20.14v91.78
			h21.02c5.6,0,10.14-1.1,13.67-3.3c3.53-2.2,5.27-5.09,5.27-8.66v-67.7C535.48,705.72,533.66,702.76,530,700.6z"/>
		<path class="st0" d="M593.22,797.7h-15.14v-108.9h15.14V797.7z"/>
		<path class="st0" d="M691.89,797.7h-14.27V719l-44.65,78.7h-11.33v-108.9h14.27v80.09l45.53-80.09h10.46V797.7z"/>
		<path class="st0" d="M757.68,797.97h-14.93l-30.38-108.89v-0.28h14.58l6,24.21h33.86l6-24.21h15.03L757.68,797.97z M734.92,721.58
			l15.03,59.01l14.93-59.01H734.92z"/>
		<path class="st0" d="M867.02,797.7h-68.07v-8.56h26.57V688.81h15.14v100.33h26.36V797.7z"/>
		<path class="st0" d="M940.75,697.36h-40.84v42.45h36.59v8.7h-36.59v40.63h40.19v8.56h-55.33v-108.9h55.97V697.36z"/>
		<path class="st0" d="M1030.82,721.72c0,3.01-1.57,5.73-4.68,8.14l-47.27,36.32v22.96h36.82v-24.49h15.14v25.33
			c0,2.27-1.1,4.13-3.31,5.57c-2.22,1.44-5.11,2.16-8.67,2.16h-42.91c-3.56,0-6.48-0.72-8.77-2.16c-2.3-1.44-3.44-3.3-3.44-5.57
			v-22.06c0-3.01,1.63-5.77,4.9-8.28l47.05-36.32v-25.96h-36.82v26.79h-15.14v-27.62c0-2.27,1.14-4.13,3.44-5.57
			c2.28-1.45,5.21-2.16,8.77-2.16h42.91c3.56,0,6.45,0.72,8.67,2.16c2.22,1.43,3.31,3.29,3.31,5.57V721.72z"/>
	</g>
	<g>
		<g>
			<path d="M1457.34,613.37l-230-78.48V185.98l230,5.43h0l200.76,70.74c-0.59-5.3-1.29-11.35-2.09-17.98
				c-8.17-67.56-14.54-100.58-22.57-128.66c-9.52-33.26-23.09-67.67-57.39-81.5c-27.49-11.09-59.25-9.13-87.77-8.84
				c-54.17,0.55-108.44,0.54-162.61-0.46c-43.96-0.82-89.75-1.58-130.85,16.39c-45.48,19.88-59.12,64.92-62.2,110.69
				c-4.34,65.29,0.96,130.64,2.11,195.94c1.34,75.97,3.25,151.88,3.63,227.73c0.11,21.66,1.69,43.81,10.2,63.73
				c10.76,25.19,31.11,36.8,54.52,48.07c61.02,29.37,123.93,54.53,186.33,80.77c48.09,20.22,94.55,44.52,144.13,61.08
				c57.31,19.14,76.29,19.81,92.52,11.22c32.13-17,37.99-61.78,44.83-114.01c7.91-60.43-7.76-77.9-11.71-81.92
				c-4.36-4.44-12.55-9.81-30.22-17.95c-25.46-11.73-41.4-18.81-50.86-23.12c-15.14-6.89-29.92-14.06-40.69-19.38
				C1510.73,593.77,1484.04,603.57,1457.34,613.37z"/>
			<polygon class="st1" points="1227.35,534.9 1457.34,613.37 1457.34,191.41 1227.35,185.98 			"/>
			<polygon class="st1" points="1700.62,277.13 1700.62,277.13 1700.62,524.03 1700.62,524.03 1893.79,521.62 1893.79,272.3 			"/>
			<polygon class="st2" points="1658.1,262.15 1457.34,191.41 1457.34,191.41 1457.34,613.37 1457.34,613.37 1537.43,583.96 
				1700.62,524.03 1700.62,277.13 			"/>
		</g>
		<g>
			<path d="M1676.83,399.77c-0.17-4.03-0.42-8.01-0.75-11.83c-0.33-3.84-0.76-7.63-1.27-11.28c-0.51-3.67-1.11-7.3-1.8-10.78
				c-0.69-3.53-1.48-6.98-2.36-10.26c-0.88-3.33-1.88-6.59-2.96-9.69c-1.09-3.15-2.3-6.23-3.6-9.16c-1.32-2.98-2.76-5.9-4.29-8.65
				c-1.2-2.19-2.5-4.31-3.85-6.3c-1.37-2.02-2.84-3.96-4.37-5.78c-1.55-1.85-3.21-3.61-4.93-5.25c-1.75-1.67-3.62-3.25-5.54-4.7
				c-1.41-1.07-3.01-2.15-4.76-3.22c-1.76-1.07-3.72-2.16-5.84-3.24c-2.14-1.09-4.52-2.2-7.05-3.31c-2.58-1.13-5.42-2.29-8.43-3.44
				l-68.44-26.26v293.28l70.97-27.24c2.33-0.89,4.61-1.85,6.76-2.84c2.11-0.97,4.17-2.01,6.12-3.08c1.91-1.05,3.78-2.17,5.54-3.31
				c1.73-1.13,3.41-2.32,5.01-3.55c1.56-1.21,3.08-2.47,4.5-3.77c1.41-1.28,2.77-2.62,4.05-3.98c1.26-1.35,2.48-2.76,3.62-4.2
				c1.13-1.42,2.21-2.91,3.22-4.42c1-1.49,1.98-3.1,2.92-4.77c0.93-1.65,1.85-3.41,2.73-5.24c0.87-1.8,1.73-3.72,2.55-5.71
				c0.82-1.96,1.62-4.04,2.38-6.16c0.77-2.12,1.5-4.37,2.19-6.71c0.68-2.31,1.34-4.76,1.95-7.28c0.6-2.49,1.18-5.14,1.71-7.86
				c0.53-2.68,1.03-5.52,1.49-8.45c0.46-2.91,0.87-5.93,1.21-9c0.34-3.07,0.63-6.26,0.85-9.49c0.23-3.23,0.4-6.6,0.51-10.02
				c0.11-3.42,0.17-6.98,0.17-10.59C1677.08,407.98,1677,403.79,1676.83,399.77z M1579.51,511.15V315.36l33.68,9.87
				c2.97,0.87,5.73,1.78,8.2,2.69c1.22,0.45,2.47,0.95,3.81,1.52c1.1,0.82,1.99,1.55,2.7,2.23c1.5,1.47,2.96,3.19,4.34,5.1
				c1.37,1.91,2.7,4.07,3.95,6.44c1.24,2.35,2.44,4.95,3.56,7.75c1.11,2.77,2.18,5.81,3.18,9.04c0.98,3.16,1.85,6.66,2.57,10.39
				c0.73,3.71,1.34,7.79,1.82,12.1c0.48,4.3,0.85,8.96,1.09,13.87c0.24,4.9,0.36,10.2,0.36,15.73c0,3.99-0.06,7.89-0.18,11.58
				c-0.12,3.69-0.31,7.29-0.55,10.71c-0.25,3.41-0.56,6.74-0.93,9.88c-0.37,3.15-0.81,6.2-1.3,9.08c-0.5,2.89-1.05,5.7-1.65,8.35
				c-0.6,2.65-1.27,5.21-1.97,7.61c-0.71,2.41-1.48,4.72-2.3,6.88c-0.82,2.16-1.7,4.23-2.63,6.15c-0.65,1.35-1.37,2.66-2.14,3.92
				c-0.77,1.26-1.62,2.49-2.52,3.67c-0.91,1.18-1.89,2.34-2.92,3.43c-0.95,1-1.98,2-3.08,2.97l-0.07,0.04
				c-1.79,0.85-3.76,1.68-5.85,2.46c-2.15,0.8-4.49,1.57-6.96,2.3L1579.51,511.15z"/>
		</g>
		<g>
			<path d="M1770.33,475.61c-18.21,23.31-31.03,34.97-38.45,34.97c-3.52,0-7.98-2.44-13.38-7.31c-5.62-2.62-8.43-6.15-8.43-10.57
				c0-0.82,0.07-1.69,0.23-2.59c1.35-10.27,4.08-21.62,8.21-34.07c-2.77-1.42-4.16-2.77-4.16-4.05c0-1.05,0.79-1.57,2.36-1.57
				c1.2,0,2.43,0.34,3.71,1.01c6.67-14.99,12.67-25.64,17.99-31.93c3.45-4.2,6.56-6.3,9.33-6.3c1.27,0,4.42,1.09,9.44,3.26
				c-0.38-2.25,0.26-3.56,1.91-3.94c0.07,0,1.84,0,5.28,0c3.22,0,4.83,0.56,4.83,1.69c0,0.23-0.11,0.86-0.34,1.91
				c-0.22,1.05-0.34,2.02-0.34,2.92c0,2.7,0.04,6.03,0.11,10.01c0.07,3.97,0.11,6.63,0.11,7.98c0,9.3-2.55,15.78-7.65,19.45
				c-4.65,3.37-9.89,5.06-15.74,5.06c-3.07,0-8.17-0.82-15.29-2.47c-1.27,2.32-2.7,6.86-4.27,13.6c-2.1,8.55-3.07,16.12-2.92,22.71
				c0.07,3.9,1.31,5.85,3.71,5.85c0.9,0,2.06-0.22,3.49-0.67c8.69-3.07,20.8-12.44,36.32-28.11c0.97-0.97,1.95-1.46,2.92-1.46
				c1.42,0,2.14,0.67,2.14,2.02C1771.46,473.85,1771.08,474.71,1770.33,475.61z M1757.18,425.91c0-2.92-0.64-4.38-1.91-4.38
				c-0.83,0-2.02,0.6-3.6,1.8c-7.35,5.92-13.79,16.3-19.34,31.14c1.5,0.23,4.12,0.45,7.87,0.67c6.07,0.22,10.61-1.16,13.6-4.16
				c2.25-2.25,3.49-5.96,3.71-11.13C1757.29,443.68,1757.18,439.03,1757.18,425.91z"/>
			<path d="M1836.16,423.44c0,9.82-1.22,19.19-3.66,28.11c-0.77,2.7-1.81,4.05-3.14,4.05c-0.98,0-3.14-1.5-6.49-4.5
				c-1.67-1.5-2.09-3.64-1.26-6.41c1.95-6.82,2.93-12.29,2.93-16.42c0-1.42-0.28-2.14-0.84-2.14c-0.84,0-2.2,1.35-4.08,4.05
				c-14.51,20.31-25.36,43.1-32.55,68.36c-2.3,8.02-4.26,12.03-5.86,12.03c-0.63,0-3.39-1.31-8.27-3.94
				c-2.37-1.27-3.18-3.75-2.41-7.42c5.51-25.93,11.44-47.82,17.79-65.66c-5.16,5.85-8.44,9.86-9.84,12.03
				c-0.56,0.9-1.33,1.35-2.3,1.35c-1.19,0-1.78-0.56-1.78-1.69c0-0.67,0.28-1.42,0.84-2.25c3.42-4.42,7.99-11.17,13.71-20.24
				c1.74-3.3,3.49-4.95,5.23-4.95c1.26,0,3.8,1.05,7.64,3.15c2.16,1.2,2.51,2.81,1.05,4.84c-1.54,2.17-4.43,9.86-8.69,23.05
				c-4.05,12.82-6.84,22.86-8.37,30.13c9.49-22.71,20.27-42.76,32.34-60.15c2.3-3.3,4.15-4.95,5.55-4.95c1.26,0,2.96,0.9,5.13,2.7
				c2.93,0.38,4.78,0.86,5.55,1.46C1835.56,418.94,1836.16,420.74,1836.16,423.44z"/>
			<path d="M1867.06,482.4c0.22,8.99-4.76,15.14-14.95,18.44c-1.28,3.15-2.47,5.32-3.6,6.52c-1.72,1.8-4.27,2.85-7.65,3.15
				c-2.17,0.15-4.5,0.04-6.97-0.34c-4.42-0.67-9.86-1.5-16.3-2.47c-1.8-0.3-2.88-1.39-3.26-3.26c0.3-2.02,2.4-3.22,6.3-3.6
				c5.32-0.37,13.19-1.31,23.61-2.81c3.9-0.9,6.67-3.11,8.32-6.63c0.97-1.8,1.46-4.01,1.46-6.63c0-4.72-2.36-13.04-7.08-24.96
				c-4.65-11.62-6.82-19.38-6.52-23.27c0.6-9.37,9.26-15.89,25.97-19.56c1.65-0.37,2.47,0.23,2.47,1.8c0,0.9-0.6,1.61-1.8,2.14
				c-8.1,3.52-12.14,7.87-12.14,13.04c0,2.02,0.37,4.55,1.12,7.59c0.75,3.04,3,10.33,6.75,21.87
				C1865.56,471.72,1866.98,478.06,1867.06,482.4z M1885.05,417.87c0,3.37-0.9,8.77-2.7,16.19c-0.68,2.55-1.42,4.2-2.25,4.95
				c-0.38,0.38-1.65,0.94-3.82,1.69c-2.77,1.05-4.5,1.57-5.17,1.57c-1.12,0-1.69-0.75-1.69-2.25c0-0.82,0.15-1.91,0.45-3.26
				c1.8-7.42,2.49-12.57,2.08-15.46c-0.41-2.89,0.43-4.7,2.53-5.45c3.67-1.87,6.03-2.81,7.08-2.81
				C1883.89,413.03,1885.05,414.64,1885.05,417.87z"/>
		</g>
		<g>
			<path d="M1393.69,246.38l-44.48,0.42l-80.07,203.78l40.67,15.25l15.25-39.4l108.88,34.32l23.4,62.7l85.48,36.43L1393.69,246.38z
				 M1338.7,385.72c10.69-25.89,21.37-51.79,32.06-77.68c13.67,31.03,27.33,62.06,41,93.09
				C1387.41,395.99,1363.05,390.85,1338.7,385.72z"/>
		</g>
	</g>
</g>
</svg>
