<?xml version="1.0" encoding="utf-8"?>
<!-- Generator: Adobe Illustrator 23.0.2, SVG Export Plug-In . SVG Version: 6.00 Build 0)  -->
<svg version="1.1" id="CADers" xmlns="http://www.w3.org/2000/svg" xmlns:xlink="http://www.w3.org/1999/xlink" x="0px" y="0px"
	 width="60px" height="60px" viewBox="0 0 60 60" style="enable-background:new 0 0 60 60;" xml:space="preserve">
<style type="text/css">
	.st0{fill:#1FD801;}
	.st1{fill:#064A01;}
</style>
<g>
	<g>
		<g>
			<path d="M28.53,43.24L14.04,38.3V16.31l14.49,0.34h0l12.65,4.46c-0.04-0.33-0.08-0.72-0.13-1.13c-0.51-4.26-0.92-6.34-1.42-8.11
				c-0.6-2.1-1.45-4.26-3.62-5.14c-1.73-0.7-3.73-0.58-5.53-0.56c-3.41,0.03-6.83,0.03-10.25-0.03c-2.77-0.05-5.66-0.1-8.25,1.03
				c-2.87,1.25-3.73,4.09-3.92,6.98C7.8,18.27,8.13,22.39,8.2,26.5c0.08,4.79,0.2,9.57,0.23,14.35c0.01,1.37,0.11,2.76,0.64,4.02
				c0.68,1.59,1.96,2.32,3.44,3.03c3.85,1.85,7.81,3.44,11.74,5.09c3.03,1.27,5.96,2.81,9.08,3.85c3.61,1.21,4.81,1.25,5.83,0.71
				c2.02-1.07,2.39-3.89,2.83-7.18c0.5-3.81-0.49-4.91-0.74-5.16c-0.27-0.28-0.79-0.62-1.9-1.13c-1.6-0.74-2.61-1.19-3.21-1.46
				c-0.95-0.43-1.89-0.89-2.56-1.22C31.9,42,30.21,42.62,28.53,43.24z"/>
			<polygon class="st0" points="14.04,38.3 28.53,43.24 28.53,16.65 14.04,16.31 			"/>
			<polygon class="st0" points="43.86,22.05 43.86,22.05 43.86,37.61 43.86,37.61 56.04,37.46 56.04,21.75 			"/>
			<polygon class="st1" points="41.18,21.11 28.53,16.65 28.53,16.65 28.53,43.24 28.53,43.24 33.58,41.39 43.86,37.61 43.86,22.05 
							"/>
		</g>
		<g>
			<path d="M42.36,29.78c-0.01-0.25-0.03-0.5-0.05-0.75c-0.02-0.24-0.05-0.48-0.08-0.71c-0.03-0.23-0.07-0.46-0.11-0.68
				c-0.04-0.22-0.09-0.44-0.15-0.65c-0.06-0.21-0.12-0.42-0.19-0.61c-0.07-0.2-0.15-0.39-0.23-0.58c-0.08-0.19-0.17-0.37-0.27-0.55
				c-0.08-0.14-0.16-0.27-0.24-0.4c-0.09-0.13-0.18-0.25-0.28-0.36c-0.1-0.12-0.2-0.23-0.31-0.33c-0.11-0.11-0.23-0.2-0.35-0.3
				c-0.09-0.07-0.19-0.14-0.3-0.2c-0.11-0.07-0.23-0.14-0.37-0.2c-0.14-0.07-0.28-0.14-0.44-0.21c-0.16-0.07-0.34-0.14-0.53-0.22
				l-4.31-1.66v18.48l4.47-1.72c0.15-0.06,0.29-0.12,0.43-0.18c0.13-0.06,0.26-0.13,0.39-0.19c0.12-0.07,0.24-0.14,0.35-0.21
				c0.11-0.07,0.22-0.15,0.32-0.22c0.1-0.08,0.19-0.16,0.28-0.24c0.09-0.08,0.17-0.16,0.26-0.25c0.08-0.08,0.16-0.17,0.23-0.26
				c0.07-0.09,0.14-0.18,0.2-0.28c0.06-0.09,0.12-0.2,0.18-0.3c0.06-0.1,0.12-0.21,0.17-0.33c0.05-0.11,0.11-0.23,0.16-0.36
				c0.05-0.12,0.1-0.25,0.15-0.39c0.05-0.13,0.09-0.28,0.14-0.42c0.04-0.15,0.08-0.3,0.12-0.46c0.04-0.16,0.07-0.32,0.11-0.5
				c0.03-0.17,0.06-0.35,0.09-0.53c0.03-0.18,0.05-0.37,0.08-0.57c0.02-0.19,0.04-0.39,0.05-0.6c0.01-0.2,0.03-0.42,0.03-0.63
				c0.01-0.22,0.01-0.44,0.01-0.67C42.38,30.3,42.37,30.03,42.36,29.78z M36.23,36.8V24.46l2.12,0.62c0.19,0.05,0.36,0.11,0.52,0.17
				c0.08,0.03,0.16,0.06,0.24,0.1c0.07,0.05,0.13,0.1,0.17,0.14c0.09,0.09,0.19,0.2,0.27,0.32c0.09,0.12,0.17,0.26,0.25,0.41
				c0.08,0.15,0.15,0.31,0.22,0.49c0.07,0.17,0.14,0.37,0.2,0.57c0.06,0.2,0.12,0.42,0.16,0.65c0.05,0.23,0.08,0.49,0.11,0.76
				c0.03,0.27,0.05,0.56,0.07,0.87c0.02,0.31,0.02,0.64,0.02,0.99c0,0.25,0,0.5-0.01,0.73c-0.01,0.23-0.02,0.46-0.03,0.68
				c-0.02,0.22-0.04,0.42-0.06,0.62c-0.02,0.2-0.05,0.39-0.08,0.57c-0.03,0.18-0.07,0.36-0.1,0.53c-0.04,0.17-0.08,0.33-0.12,0.48
				c-0.04,0.15-0.09,0.3-0.14,0.43c-0.05,0.14-0.11,0.27-0.17,0.39c-0.04,0.08-0.09,0.17-0.13,0.25c-0.05,0.08-0.1,0.16-0.16,0.23
				c-0.06,0.07-0.12,0.15-0.18,0.22c-0.06,0.06-0.12,0.13-0.19,0.19l0,0c-0.11,0.05-0.24,0.11-0.37,0.16
				c-0.14,0.05-0.28,0.1-0.44,0.14L36.23,36.8z"/>
		</g>
		<g>
			<path d="M48.26,34.56c-1.15,1.47-1.96,2.2-2.42,2.2c-0.22,0-0.5-0.15-0.84-0.46c-0.35-0.17-0.53-0.39-0.53-0.67
				c0-0.05,0-0.11,0.01-0.16c0.08-0.65,0.26-1.36,0.52-2.15c-0.17-0.09-0.26-0.17-0.26-0.26c0-0.07,0.05-0.1,0.15-0.1
				c0.08,0,0.15,0.02,0.23,0.06c0.42-0.94,0.8-1.62,1.13-2.01c0.22-0.26,0.41-0.4,0.59-0.4c0.08,0,0.28,0.07,0.6,0.21
				c-0.02-0.14,0.02-0.22,0.12-0.25c0,0,0.12,0,0.33,0c0.2,0,0.3,0.04,0.3,0.11c0,0.01-0.01,0.05-0.02,0.12
				c-0.01,0.07-0.02,0.13-0.02,0.18c0,0.17,0,0.38,0.01,0.63c0,0.25,0.01,0.42,0.01,0.5c0,0.59-0.16,0.99-0.48,1.23
				c-0.29,0.21-0.62,0.32-0.99,0.32c-0.19,0-0.51-0.05-0.96-0.16c-0.08,0.15-0.17,0.43-0.27,0.86c-0.13,0.54-0.19,1.02-0.18,1.43
				c0,0.25,0.08,0.37,0.23,0.37c0.06,0,0.13-0.01,0.22-0.04c0.55-0.19,1.31-0.78,2.29-1.77c0.06-0.06,0.12-0.09,0.18-0.09
				c0.09,0,0.13,0.04,0.13,0.13C48.33,34.45,48.3,34.5,48.26,34.56z M47.43,31.43c0-0.18-0.04-0.28-0.12-0.28
				c-0.05,0-0.13,0.04-0.23,0.11c-0.46,0.37-0.87,1.03-1.22,1.96c0.09,0.01,0.26,0.03,0.5,0.04c0.38,0.01,0.67-0.07,0.86-0.26
				c0.14-0.14,0.22-0.38,0.23-0.7C47.43,32.55,47.43,32.25,47.43,31.43z"/>
			<path d="M52.4,31.27c0,0.62-0.08,1.21-0.23,1.77c-0.05,0.17-0.11,0.26-0.2,0.26c-0.06,0-0.2-0.09-0.41-0.28
				c-0.11-0.09-0.13-0.23-0.08-0.4c0.12-0.43,0.18-0.77,0.18-1.03c0-0.09-0.02-0.13-0.05-0.13c-0.05,0-0.14,0.09-0.26,0.26
				c-0.91,1.28-1.6,2.72-2.05,4.31c-0.15,0.51-0.27,0.76-0.37,0.76c-0.04,0-0.21-0.08-0.52-0.25c-0.15-0.08-0.2-0.24-0.15-0.47
				c0.35-1.63,0.72-3.01,1.12-4.14c-0.33,0.37-0.53,0.62-0.62,0.76c-0.04,0.06-0.08,0.09-0.15,0.09c-0.07,0-0.11-0.04-0.11-0.11
				c0-0.04,0.02-0.09,0.05-0.14c0.22-0.28,0.5-0.7,0.86-1.28c0.11-0.21,0.22-0.31,0.33-0.31c0.08,0,0.24,0.07,0.48,0.2
				c0.14,0.08,0.16,0.18,0.07,0.3c-0.1,0.14-0.28,0.62-0.55,1.45c-0.26,0.81-0.43,1.44-0.53,1.9c0.6-1.43,1.28-2.69,2.04-3.79
				c0.15-0.21,0.26-0.31,0.35-0.31c0.08,0,0.19,0.06,0.32,0.17c0.18,0.02,0.3,0.05,0.35,0.09C52.37,30.99,52.4,31.1,52.4,31.27z"/>
			<path d="M54.35,34.99c0.01,0.57-0.3,0.95-0.94,1.16c-0.08,0.2-0.16,0.34-0.23,0.41c-0.11,0.11-0.27,0.18-0.48,0.2
				c-0.14,0.01-0.28,0-0.44-0.02c-0.28-0.04-0.62-0.09-1.03-0.16c-0.11-0.02-0.18-0.09-0.21-0.21c0.02-0.13,0.15-0.2,0.4-0.23
				c0.34-0.02,0.83-0.08,1.49-0.18c0.25-0.06,0.42-0.2,0.52-0.42c0.06-0.11,0.09-0.25,0.09-0.42c0-0.3-0.15-0.82-0.45-1.57
				c-0.29-0.73-0.43-1.22-0.41-1.47c0.04-0.59,0.58-1,1.64-1.23c0.1-0.02,0.16,0.01,0.16,0.11c0,0.06-0.04,0.1-0.11,0.13
				c-0.51,0.22-0.77,0.5-0.77,0.82c0,0.13,0.02,0.29,0.07,0.48c0.05,0.19,0.19,0.65,0.43,1.38C54.26,34.31,54.35,34.71,54.35,34.99z
				 M55.49,30.92c0,0.21-0.06,0.55-0.17,1.02c-0.04,0.16-0.09,0.26-0.14,0.31c-0.02,0.02-0.1,0.06-0.24,0.11
				c-0.17,0.07-0.28,0.1-0.33,0.1c-0.07,0-0.11-0.05-0.11-0.14c0-0.05,0.01-0.12,0.03-0.21c0.11-0.47,0.16-0.79,0.13-0.97
				c-0.03-0.18,0.03-0.3,0.16-0.34c0.23-0.12,0.38-0.18,0.45-0.18C55.41,30.62,55.49,30.72,55.49,30.92z"/>
		</g>
		<g>
			<path d="M24.52,20.11l-2.8,0.03l-5.05,12.84l2.56,0.96l0.96-2.48l6.86,2.16l1.47,3.95l5.39,2.3L24.52,20.11z M21.06,28.89
				c0.67-1.63,1.35-3.26,2.02-4.9c0.86,1.96,1.72,3.91,2.58,5.87C24.13,29.54,22.59,29.22,21.06,28.89z"/>
		</g>
	</g>
</g>
</svg>
