<?xml version="1.0" encoding="UTF-8" standalone="no"?>
<svg
   xmlns:dc="http://purl.org/dc/elements/1.1/"
   xmlns:cc="http://creativecommons.org/ns#"
   xmlns:rdf="http://www.w3.org/1999/02/22-rdf-syntax-ns#"
   xmlns:svg="http://www.w3.org/2000/svg"
   xmlns="http://www.w3.org/2000/svg"
   xmlns:sodipodi="http://sodipodi.sourceforge.net/DTD/sodipodi-0.dtd"
   xmlns:inkscape="http://www.inkscape.org/namespaces/inkscape"
   inkscape:version="1.0 (4035a4fb49, 2020-05-01)"
   height="50"
   width="50"
   sodipodi:docname="calendar-minus-solid.svg"
   id="svg4"
   version="1.1"
   viewBox="0 0 50 50"
   role="img"
   class="svg-inline--fa fa-calendar-minus fa-w-14"
   data-icon="calendar-minus"
   data-prefix="fas"
   focusable="false"
   aria-hidden="true">
  <metadata
     id="metadata10">
    <rdf:RDF>
      <cc:Work
         rdf:about="">
        <dc:format>image/svg+xml</dc:format>
        <dc:type
           rdf:resource="http://purl.org/dc/dcmitype/StillImage" />
        <dc:title></dc:title>
      </cc:Work>
    </rdf:RDF>
  </metadata>
  <defs
     id="defs8" />
  <sodipodi:namedview
     inkscape:current-layer="svg4"
     inkscape:window-maximized="1"
     inkscape:window-y="-9"
     inkscape:window-x="-9"
     inkscape:cy="25.896706"
     inkscape:cx="65.790243"
     inkscape:zoom="9.3028736"
     showgrid="false"
     id="namedview6"
     inkscape:window-height="1013"
     inkscape:window-width="1920"
     inkscape:pageshadow="2"
     inkscape:pageopacity="0"
     guidetolerance="10"
     gridtolerance="10"
     objecttolerance="10"
     borderopacity="1"
     bordercolor="#666666"
     pagecolor="#ffffff" />
  <path
     style="stroke-width:0.0976562;fill:#ffffff"
     id="path2"
     d="M 45.703122,15.625 H 4.2968739 C 3.6523431,15.625 3.124999,15.097656 3.124999,14.453125 V 10.9375 c 0,-2.587891 2.09961,-4.6875 4.6874999,-4.6875 H 12.500002 V 1.171875 C 12.500002,0.527344 13.027342,0 13.671872,0 h 3.90625 c 0.64453,0 1.17188,0.527344 1.17188,1.171875 V 6.25 h 12.5 V 1.171875 C 31.250002,0.527344 31.777342,0 32.421872,0 h 3.90625 c 0.64453,0 1.171879,0.527344 1.171879,1.171875 V 6.25 h 4.6875 c 2.58789,0 4.6875,2.099609 4.6875,4.6875 v 3.515625 c 0,0.644531 -0.52735,1.171875 -1.171879,1.171875 z M 4.2968739,18.75 H 45.703122 c 0.64453,0 1.171879,0.527343 1.171879,1.171875 V 45.3125 c 0,2.587891 -2.09961,4.6875 -4.6875,4.6875 H 7.8124989 C 5.224609,50 3.124999,47.900391 3.124999,45.3125 V 19.921875 C 3.124999,19.277343 3.6523431,18.75 4.2968739,18.75 Z M 33.984371,37.5 c 0.64453,0 1.17188,-0.527344 1.17188,-1.171875 v -3.90625 c 0,-0.644531 -0.52735,-1.171875 -1.17188,-1.171875 h -17.96875 c -0.64453,0 -1.17187,0.527344 -1.17187,1.171875 v 3.90625 c 0,0.644531 0.52734,1.171875 1.17187,1.171875 z"
     fill="currentColor" />
</svg>
