<?xml version="1.0" encoding="utf-8"?>
<!-- Generator: Adobe Illustrator 23.0.2, SVG Export Plug-In . SVG Version: 6.00 Build 0)  -->
<svg version="1.1" id="Layer_1" focusable="false" xmlns="http://www.w3.org/2000/svg" xmlns:xlink="http://www.w3.org/1999/xlink"
	 x="0px" y="0px" width="60px" height="60px" viewBox="0 0 60 60" style="enable-background:new 0 0 60 60;" xml:space="preserve">
<style type="text/css">
	.st0{fill:url(#SVGID_1_);}
</style>
<linearGradient id="SVGID_1_" gradientUnits="userSpaceOnUse" x1="0" y1="30" x2="60" y2="30">
	<stop  offset="0" style="stop-color:#32C326"/>
	<stop  offset="1" style="stop-color:#21831A"/>
</linearGradient>
<path class="st0" d="M60,30c0,16.6-13.4,30-30,30S0,46.6,0,30S13.4,0,30,0S60,13.4,60,30z M26.5,45.9l22.3-22.3c0.8-0.8,0.8-2,0-2.7
	l-2.7-2.7c-0.8-0.8-2-0.8-2.7,0L25.2,36.3l-8.5-8.5c-0.8-0.8-2-0.8-2.7,0l-2.7,2.7c-0.8,0.8-0.8,2,0,2.7l12.6,12.6
	C24.5,46.6,25.8,46.6,26.5,45.9L26.5,45.9z"/>
</svg>
