<?xml version="1.0" encoding="utf-8"?>
<!-- Generator: Adobe Illustrator 23.0.2, SVG Export Plug-In . SVG Version: 6.00 Build 0)  -->
<svg version="1.1" id="Layer_1" focusable="false" xmlns="http://www.w3.org/2000/svg" xmlns:xlink="http://www.w3.org/1999/xlink"
	 x="0px" y="0px" width="60px" height="60px" viewBox="0 0 60 60" style="enable-background:new 0 0 60 60;" xml:space="preserve">
<style type="text/css">
	.st0{fill:#FFFFFF;}
</style>
<path class="st0" d="M28,0.9L3.6,10C1.5,10.8,0,12.9,0,15.3v26.4c0,2.1,1.2,4.1,3.1,5l24.4,12.2c1.6,0.8,3.4,0.8,5,0l24.4-12.2
	c1.9-0.9,3.1-2.9,3.1-5V15.3c0-2.3-1.5-4.4-3.6-5.3L32,0.9C30.7,0.4,29.3,0.4,28,0.9z M30,8.1l22.5,8.4v0.1L30,25.9L7.5,16.7v-0.1
	C7.5,16.6,30,8.1,30,8.1z M33.8,49.9V32.4l18.8-7.6v15.7L33.8,49.9z"/>
</svg>
