<?xml version="1.0" encoding="utf-8"?>
<!-- Generator: Adobe Illustrator 23.0.2, SVG Export Plug-In . SVG Version: 6.00 Build 0)  -->
<svg version="1.1" id="Capa_1" xmlns="http://www.w3.org/2000/svg" xmlns:xlink="http://www.w3.org/1999/xlink" x="0px" y="0px"
	 width="512px" height="512px" viewBox="0 0 512 512" style="enable-background:new 0 0 512 512;" xml:space="preserve">
<style type="text/css">
	.st0{fill:#32C326;}
	.st1{fill:#21831A;}
	.st2{fill:#0E370B;}
</style>
<path class="st0" d="M179.2,204.8c0-47.1-38.2-85.3-85.3-85.3S8.5,157.7,8.5,204.8c0,31.6,17.2,59.1,42.7,73.8v-22.5
	c0-9.5,8-17.2,17.9-17.2h49.5c9.9,0,17.9,7.7,17.9,17.2v22.5C162,263.9,179.2,236.4,179.2,204.8z"/>
<g>
	<circle class="st1" cx="93.9" cy="179.2" r="25.6"/>
	<path class="st1" d="M118.6,238.9H69.1c-9.9,0-17.9,7.7-17.9,17.2v22.5c12.6,7.3,27.1,11.5,42.7,11.5s30.1-4.2,42.7-11.5v-22.5
		C136.5,246.6,128.5,238.9,118.6,238.9z"/>
</g>
<path class="st0" d="M384,93.9c0-47.1-38.2-85.3-85.3-85.3s-85.3,38.2-85.3,85.3c0,31.6,17.2,59.1,42.7,73.8v-22.5
	c0-9.5,8-17.2,17.9-17.2h49.5c9.9,0,17.9,7.7,17.9,17.2v22.5C366.8,152.9,384,125.4,384,93.9z"/>
<g>
	<circle class="st1" cx="298.7" cy="68.3" r="25.6"/>
	<path class="st1" d="M323.4,128h-49.5c-9.9,0-17.9,7.7-17.9,17.2v22.5c12.6,7.3,27.1,11.5,42.7,11.5s30.1-4.2,42.7-11.5v-22.5
		C341.3,135.7,333.3,128,323.4,128z"/>
</g>
<path class="st0" d="M494.9,315.7c0-47.1-38.2-85.3-85.3-85.3s-85.3,38.2-85.3,85.3c0,31.6,17.2,59.1,42.7,73.8v-22.5
	c0-9.5,8-17.2,17.9-17.2h49.5c9.9,0,17.9,7.7,17.9,17.2v22.5C477.8,374.8,494.9,347.3,494.9,315.7z"/>
<g>
	<circle class="st1" cx="409.6" cy="290.1" r="25.6"/>
	<path class="st1" d="M434.4,349.9h-49.5c-9.9,0-17.9,7.7-17.9,17.2v22.5c12.6,7.3,27.1,11.5,42.7,11.5s30.1-4.2,42.7-11.5v-22.5
		C452.3,357.6,444.2,349.9,434.4,349.9z"/>
</g>
<path class="st0" d="M290.1,418.1c0-47.1-38.2-85.3-85.3-85.3s-85.3,38.2-85.3,85.3c0,31.6,17.2,59.1,42.7,73.8v-22.5
	c0-9.5,8-17.2,17.9-17.2h49.5c9.9,0,17.9,7.7,17.9,17.2v22.5C273,477.2,290.1,449.7,290.1,418.1z"/>
<g>
	<circle class="st1" cx="204.8" cy="392.5" r="25.6"/>
	<path class="st1" d="M229.6,452.3H180c-9.9,0-17.9,7.7-17.9,17.2V492c12.6,7.3,27.1,11.5,42.7,11.5s30.1-4.2,42.7-11.5v-22.5
		C247.5,460,239.4,452.3,229.6,452.3z"/>
</g>
<g>
	<path class="st2" d="M477.9,170.7c-18.8,0-34.1-15.3-34.1-34.1s15.3-34.1,34.1-34.1c18.8,0,34.1,15.3,34.1,34.1
		S496.7,170.7,477.9,170.7z M477.9,119.5c-9.4,0-17.1,7.7-17.1,17.1c0,9.4,7.7,17.1,17.1,17.1c9.4,0,17.1-7.7,17.1-17.1
		S487.3,119.5,477.9,119.5z"/>
	<path class="st2" d="M34.1,452.3C15.3,452.3,0,437,0,418.1C0,399.3,15.3,384,34.1,384s34.1,15.3,34.1,34.1
		C68.3,437,53,452.3,34.1,452.3z M34.1,401.1c-9.4,0-17.1,7.7-17.1,17.1c0,9.4,7.7,17.1,17.1,17.1s17.1-7.7,17.1-17.1
		C51.2,408.7,43.5,401.1,34.1,401.1z"/>
	<path class="st2" d="M457.6,129.4c-1.2,0-2.5-0.3-3.7-0.9L380.3,93c-4.2-2-6-7.2-4-11.4s7.1-6,11.4-4l73.6,35.5c4.2,2,6,7.2,4,11.4
		C463.8,127.6,460.8,129.4,457.6,129.4z"/>
	<path class="st2" d="M384,512c-18.8,0-34.1-15.3-34.1-34.1c0-18.8,15.3-34.1,34.1-34.1c18.8,0,34.1,15.3,34.1,34.1
		S402.8,512,384,512z M384,460.8c-9.4,0-17.1,7.7-17.1,17.1c0,9.4,7.7,17.1,17.1,17.1c9.4,0,17.1-7.7,17.1-17.1
		C401.1,468.5,393.4,460.8,384,460.8z"/>
	<path class="st2" d="M363.7,470.7c-1.2,0-2.5-0.3-3.7-0.9l-73.6-35.5c-4.2-2-6-7.2-4-11.4c2-4.3,7.1-6,11.4-4l73.6,35.5
		c4.2,2,6,7.2,4,11.4C370,469,366.9,470.7,363.7,470.7z"/>
	<path class="st2" d="M256,298.7c-18.8,0-34.1-15.3-34.1-34.1c0-18.8,15.3-34.1,34.1-34.1c18.8,0,34.1,15.3,34.1,34.1
		S274.8,298.7,256,298.7z M256,247.5c-9.4,0-17.1,7.7-17.1,17.1c0,9.4,7.7,17.1,17.1,17.1c9.4,0,17.1-7.7,17.1-17.1
		S265.4,247.5,256,247.5z"/>
	<path class="st2" d="M235.7,257.4c-1.8,0-3.7-0.6-5.2-1.8L174,211.5c-3.7-2.9-4.4-8.3-1.5-12c2.9-3.7,8.3-4.4,12-1.5l56.6,44.1
		c3.7,2.9,4.4,8.3,1.5,12C240.8,256.3,238.3,257.4,235.7,257.4z"/>
	<path class="st2" d="M409.6,409.6c-51.8,0-93.9-42.1-93.9-93.9s42.1-93.9,93.9-93.9s93.9,42.1,93.9,93.9S461.4,409.6,409.6,409.6z
		 M409.6,238.9c-42.4,0-76.8,34.4-76.8,76.8s34.4,76.8,76.8,76.8s76.8-34.4,76.8-76.8S452,238.9,409.6,238.9z"/>
	<path class="st2" d="M409.6,324.3c-18.8,0-34.1-15.3-34.1-34.1c0-18.8,15.3-34.1,34.1-34.1c18.8,0,34.1,15.3,34.1,34.1
		S428.4,324.3,409.6,324.3z M409.6,273.1c-9.4,0-17.1,7.7-17.1,17.1c0,9.4,7.7,17.1,17.1,17.1c9.4,0,17.1-7.7,17.1-17.1
		C426.7,280.7,419,273.1,409.6,273.1z"/>
	<path class="st2" d="M409.6,409.6c-16.4,0-32.6-4.4-46.9-12.7c-2.6-1.5-4.3-4.3-4.3-7.4v-22.5c0-14.2,11.9-25.7,26.4-25.7h49.5
		c14.6,0,26.4,11.5,26.4,25.7v22.5c0,3-1.6,5.9-4.3,7.4C442.2,405.2,426,409.6,409.6,409.6z M375.5,384.5c21.2,10.6,47,10.6,68.3,0
		v-17.4c0-4.8-4.2-8.7-9.4-8.7h-49.5c-5.2,0-9.4,3.9-9.4,8.7L375.5,384.5L375.5,384.5z M452.3,389.6L452.3,389.6L452.3,389.6z"/>
	<path class="st2" d="M204.8,512c-51.8,0-93.9-42.1-93.9-93.9s42.1-93.9,93.9-93.9s93.9,42.1,93.9,93.9S256.6,512,204.8,512z
		 M204.8,341.3c-42.4,0-76.8,34.4-76.8,76.8s34.4,76.8,76.8,76.8s76.8-34.4,76.8-76.8S247.2,341.3,204.8,341.3z"/>
	<path class="st2" d="M204.8,426.7c-18.8,0-34.1-15.3-34.1-34.1s15.3-34.1,34.1-34.1s34.1,15.3,34.1,34.1S223.6,426.7,204.8,426.7z
		 M204.8,375.5c-9.4,0-17.1,7.7-17.1,17.1s7.7,17.1,17.1,17.1s17.1-7.7,17.1-17.1S214.2,375.5,204.8,375.5z"/>
	<path class="st2" d="M204.8,512c-16.4,0-32.6-4.4-46.9-12.7c-2.6-1.5-4.3-4.3-4.3-7.4v-22.5c0-14.2,11.9-25.7,26.4-25.7h49.5
		c14.6,0,26.4,11.5,26.4,25.7V492c0,3-1.6,5.9-4.3,7.4C237.4,507.6,221.2,512,204.8,512z M170.7,486.9c21.2,10.6,47,10.6,68.3,0
		v-17.4c0-4.8-4.2-8.7-9.4-8.7H180c-5.2,0-9.4,3.9-9.4,8.7L170.7,486.9L170.7,486.9z M247.5,492L247.5,492L247.5,492z"/>
	<path class="st2" d="M93.9,298.7C42.1,298.7,0,256.6,0,204.8s42.1-93.9,93.9-93.9s93.9,42.1,93.9,93.9S145.6,298.7,93.9,298.7z
		 M93.9,128c-42.4,0-76.8,34.4-76.8,76.8s34.4,76.8,76.8,76.8s76.8-34.4,76.8-76.8S136.2,128,93.9,128z"/>
	<path class="st2" d="M93.9,213.3c-18.8,0-34.1-15.3-34.1-34.1s15.3-34.1,34.1-34.1s34.1,15.3,34.1,34.1S112.7,213.3,93.9,213.3z
		 M93.9,162.1c-9.4,0-17.1,7.7-17.1,17.1s7.7,17.1,17.1,17.1s17.1-7.7,17.1-17.1S103.3,162.1,93.9,162.1z"/>
	<path class="st2" d="M93.9,298.7c-16.4,0-32.6-4.4-46.9-12.7c-2.6-1.5-4.3-4.3-4.3-7.4v-22.5c0-14.2,11.9-25.7,26.4-25.7h49.5
		c14.6,0,26.4,11.5,26.4,25.7v22.5c0,3-1.6,5.9-4.3,7.4C126.5,294.3,110.3,298.7,93.9,298.7z M59.7,273.5c21.2,10.6,47,10.6,68.3,0
		v-17.4c0-4.8-4.2-8.7-9.4-8.7H69.1c-5.2,0-9.4,3.9-9.4,8.7L59.7,273.5L59.7,273.5z M136.5,278.6L136.5,278.6L136.5,278.6z"/>
	<path class="st2" d="M298.7,187.7c-51.8,0-93.9-42.1-93.9-93.9S246.9,0,298.7,0s93.9,42.1,93.9,93.9S350.4,187.7,298.7,187.7z
		 M298.7,17.1c-42.4,0-76.8,34.4-76.8,76.8s34.4,76.8,76.8,76.8s76.8-34.4,76.8-76.8S341,17.1,298.7,17.1z"/>
	<path class="st2" d="M298.7,102.4c-18.8,0-34.1-15.3-34.1-34.1s15.3-34.1,34.1-34.1s34.1,15.3,34.1,34.1S317.5,102.4,298.7,102.4z
		 M298.7,51.2c-9.4,0-17.1,7.7-17.1,17.1s7.7,17.1,17.1,17.1c9.4,0,17.1-7.7,17.1-17.1S308.1,51.2,298.7,51.2z"/>
	<path class="st2" d="M298.7,187.7c-16.4,0-32.6-4.4-46.9-12.7c-2.6-1.5-4.3-4.3-4.3-7.4v-22.5c0-14.2,11.9-25.7,26.4-25.7h49.5
		c14.6,0,26.4,11.5,26.4,25.7v22.5c0,3-1.6,5.9-4.3,7.4C331.3,183.4,315.1,187.7,298.7,187.7z M264.5,162.6
		c21.2,10.6,47,10.6,68.3,0v-17.4c0-4.8-4.2-8.7-9.4-8.7h-49.5c-5.2,0-9.4,3.9-9.4,8.7L264.5,162.6L264.5,162.6z M341.3,167.7
		L341.3,167.7L341.3,167.7z"/>
	<path class="st2" d="M154.2,153c-2.4,0-4.8-1-6.5-3c-3.1-3.6-2.6-9,0.9-12l59.1-50.6c3.6-3.1,9-2.6,12,0.9c3.1,3.6,2.6,9-0.9,12
		l-59.1,50.6C158.1,152.3,156.2,153,154.2,153z"/>
	<path class="st2" d="M401.1,238.9c-2.6,0-5.2-1.2-6.8-3.4L343,167.3c-2.8-3.8-2.1-9.1,1.7-11.9c3.8-2.8,9.1-2.1,11.9,1.7l51.2,68.3
		c2.8,3.8,2.1,9.1-1.7,11.9C404.7,238.4,402.9,238.9,401.1,238.9z"/>
	<path class="st2" d="M283.4,393.3c-2.6,0-5.2-1.2-6.8-3.4c-2.8-3.8-2.1-9.1,1.7-11.9l47.7-35.7c3.8-2.8,9.1-2.1,11.9,1.7
		c2.8,3.8,2.1,9.1-1.7,11.9l-47.7,35.7C287,392.8,285.2,393.3,283.4,393.3z"/>
	<path class="st2" d="M119.5,426.7H59.7c-4.7,0-8.5-3.8-8.5-8.5s3.8-8.5,8.5-8.5h59.7c4.7,0,8.5,3.8,8.5,8.5
		C128,422.9,124.2,426.7,119.5,426.7z"/>
	<path class="st2" d="M93.9,68.3C75,68.3,59.7,53,59.7,34.1S75,0,93.9,0S128,15.3,128,34.1S112.7,68.3,93.9,68.3z M93.9,17.1
		c-9.4,0-17.1,7.7-17.1,17.1s7.7,17.1,17.1,17.1s17.1-7.7,17.1-17.1S103.3,17.1,93.9,17.1z"/>
	<path class="st2" d="M93.9,128c-4.7,0-8.5-3.8-8.5-8.5V59.7c0-4.7,3.8-8.5,8.5-8.5s8.5,3.8,8.5,8.5v59.7
		C102.4,124.2,98.6,128,93.9,128z"/>
</g>
</svg>
